<?xml version="1.0" encoding="UTF-8"?>
<svg width="41px" height="43px" viewBox="0 0 41 43" version="1.1" xmlns="http://www.w3.org/2000/svg" xmlns:xlink="http://www.w3.org/1999/xlink">
    <title>Combined Shape</title>
    <g id="Page-1" stroke="none" stroke-width="1" fill="none" fill-rule="evenodd">
        <path d="M34.18381,26.4648438 L34.18381,32.9710211 L40.6900869,32.9710211 L40.6900869,35.9585668 L34.18381,35.9585668 L34.18381,42.4648438 L31.1962643,42.4648438 L31.1962643,35.9585668 L24.6901865,35.9585668 L24.6901865,32.9710211 L31.1962643,32.9710211 L31.1962643,26.4648438 L34.18381,26.4648438 Z M16.5,23.1941534 C18.3942182,23.1941534 20.2504197,23.5139576 22.0686044,24.1535659 C23.164833,24.4559952 24.220781,24.9228232 25.2017992,25.6110652 C25.9415131,26.1299887 26.1204922,27.1501527 25.6015686,27.8898666 C25.5458752,27.9693578 25.4842324,28.0422384 25.4179623,28.1085086 C24.8666473,28.6598235 23.9828247,28.7527009 23.322602,28.2894708 C23.1230292,28.1494575 22.9206075,28.0145475 22.7159941,27.8845315 C22.6843622,27.8682647 22.6525505,27.8479667 22.6199559,27.8244971 C22.6183346,27.8233297 22.6167119,27.8221631 22.6150877,27.8209972 C22.3983151,27.6853374 22.1792438,27.5551871 21.9586231,27.4302064 C20.7190382,26.8146479 18.8991113,26.4932393 16.5,26.4661793 C9.22301426,26.4661793 4.39280279,30.211013 3.2475937,36.7405746 C3.10829888,37.5349757 2.41766769,38.0942584 1.63799064,38.0942584 C1.54427047,38.0942584 1.449148,38.0863121 1.3535581,38.0694845 C0.463567037,37.9133622 -0.13124054,37.06544 0.0248818415,36.1754489 C0.731873166,32.1445467 2.66727652,28.8150265 5.62214968,26.5472788 C8.48049808,24.3536191 12.2421594,23.1941534 16.5,23.1941534 Z M16.4999533,0 C22.1481712,0 26.7432643,4.59509303 26.7432643,10.243311 C26.7432643,15.8912952 22.1481712,20.4863883 16.4999533,20.4863883 C10.8517353,20.4863883 6.25664226,15.8912952 6.25664226,10.243311 C6.25664226,4.59509303 10.8517353,0 16.4999533,0 Z M16.4999533,3.27202596 C12.6499473,3.27202596 9.52866823,6.3930713 9.52866823,10.243311 C9.52866823,14.093317 12.6499473,17.2143623 16.4999533,17.2143623 C20.3499592,17.2143623 23.4712383,14.093317 23.4712383,10.243311 C23.4712383,6.3930713 20.3499592,3.27202596 16.4999533,3.27202596 Z" id="Combined-Shape" fill="#FFFFFF"></path>
    </g>
</svg>