<?xml version="1.0" encoding="UTF-8"?>
<svg width="35px" height="34px" viewBox="0 0 35 34" version="1.1" xmlns="http://www.w3.org/2000/svg" xmlns:xlink="http://www.w3.org/1999/xlink">
    <title>comment</title>
    <g id="Page-1" stroke="none" stroke-width="1" fill="none" fill-rule="evenodd">
        <path d="M25.7951822,18.4879096 C24.5045648,18.4879096 23.4583115,17.4445636 23.4583115,16.1574027 C23.4583115,14.8703716 24.5045648,13.8271553 25.7951822,13.8271553 C27.0857996,13.8271553 28.1320529,14.8703716 28.1320529,16.1574027 C28.1320529,17.4445636 27.0857996,18.4879096 25.7951822,18.4879096 M17.500065,18.4879096 C16.2094476,18.4879096 15.1631943,17.4445636 15.1631943,16.1574027 C15.1631943,14.8703716 16.2094476,13.8271553 17.500065,13.8271553 C18.7906825,13.8271553 19.8369357,14.8703716 19.8369357,16.1574027 C19.8369357,17.4445636 18.7906825,18.4879096 17.500065,18.4879096 M9.2048178,18.4879096 C7.91420036,18.4879096 6.8679471,17.4445636 6.8679471,16.1574027 C6.8679471,14.8703716 7.91420036,13.8271553 9.2048178,13.8271553 C10.4954352,13.8271553 11.5416885,14.8703716 11.5416885,16.1574027 C11.5416885,17.4445636 10.4954352,18.4879096 9.2048178,18.4879096 M34.9993497,14.931844 C34.997529,14.4071234 34.9683978,13.9257187 34.9140369,13.4850363 C34.0407503,5.9143258 26.5778239,0 17.500065,0 C7.83499983,0 0,6.70400061 0,14.9736038 C0,23.2430773 7.83473973,29.9468186 17.4992847,29.9470779 L17.4992847,32.3001506 C17.4992847,33.5467189 18.8014766,34.3688159 19.9304418,33.8338498 C24.6750605,31.5851766 34.7297558,25.6227362 34.9929773,15.3902938 C34.9938876,15.3591685 34.9944078,15.3277838 34.9951881,15.2966585 C34.9963586,15.2399845 34.9988295,15.183959 34.9993497,15.1271553 C35,15.0896752 34.9992197,15.0534921 34.9993497,15.0162714 C34.9993497,15.0020057 35,14.9879993 35,14.9736038 C35,14.9597271 34.9994798,14.9458504 34.9993497,14.931844" id="comment" fill="#FFFFFF"></path>
    </g>
</svg>