<?xml version="1.0" encoding="UTF-8"?>
<svg width="21px" height="21px" viewBox="0 0 21 21" version="1.1" xmlns="http://www.w3.org/2000/svg" xmlns:xlink="http://www.w3.org/1999/xlink">
    <title>Discover Icon</title>
    <g id="Page-1" stroke="none" stroke-width="1" fill="none" fill-rule="evenodd">
        <g id="Home" transform="translate(-102.000000, -734.000000)" fill="#FFFFFF">
            <g id="Navigation-Bar" transform="translate(0.000000, 728.000000)">
                <g id="Discover" transform="translate(86.000000, 6.000000)">
                    <g id="Discover-Icon" transform="translate(16.000000, 0.000000)">
                        <path d="M1.80057419,8.86153873 C1.80057419,4.96188088 4.96186802,1.80058705 8.86152587,1.80058705 C12.7611837,1.80058705 15.9224776,4.96188088 15.9224776,8.86153873 C15.9224776,12.7611966 12.7611837,15.9224904 8.86152587,15.9224904 C4.96186802,15.9224904 1.80057419,12.7611966 1.80057419,8.86153873 M20.2904133,19.2175412 L15.6370865,14.5642144 C16.9372297,13.0217654 17.7230517,11.0321309 17.7230517,8.86153873 C17.7230517,3.97529483 13.7477698,1.28612442e-05 8.86152587,1.28612442e-05 C3.97528197,1.28612442e-05 0,3.97529483 0,8.86153873 C0,13.7477826 3.97528197,17.7230646 8.86152587,17.7230646 C10.8502601,17.7230646 12.6880033,17.0643117 14.1684611,15.9537432 L18.8612719,20.6466826 C19.0036458,20.7890566 19.2345052,20.7890566 19.3768791,20.6466826 L20.2904133,19.7331485 C20.4327873,19.5906459 20.4327873,19.3599152 20.2904133,19.2175412" id="Fill-1"></path>
                    </g>
                </g>
            </g>
        </g>
    </g>
</svg>