<?xml version="1.0" encoding="UTF-8"?>
<svg width="43px" height="44px" viewBox="0 0 43 44" version="1.1" xmlns="http://www.w3.org/2000/svg" xmlns:xlink="http://www.w3.org/1999/xlink">
    <title>Combined Shape</title>
    <g id="Page-1" stroke="none" stroke-width="1" fill="none" fill-rule="evenodd">
        <path d="M38.818588,12 C41.027727,12 42.818588,13.790861 42.818588,16 C42.818588,16.2013186 42.8033896,16.4023498 42.7731224,16.6013801 L39.1845054,40.1992818 C38.8872867,42.1537221 37.2068817,43.5979017 35.229971,43.5979017 L7.98325792,43.5979017 C5.99266119,43.5979017 4.30498081,42.1341889 4.02346172,40.1635996 L0.652257201,16.5656979 C0.339830892,14.3787628 1.85942047,12.3526301 4.04635552,12.0402038 C4.23373275,12.013435 4.42277372,12 4.6120534,12 L38.818588,12 Z M39.2274761,14.9090909 L4.55647496,14.9090909 C4.51103462,14.9090909 4.46564711,14.9121881 4.42062801,14.9183611 C3.91254625,14.9880283 3.54623554,15.4279084 3.55656787,15.9284839 L3.56574513,16.0449379 L6.88150901,40.226756 C6.94418116,40.6838231 7.30946722,41.0333938 7.75839192,41.0844694 L7.87223885,41.0909091 L35.1543511,41.0909091 C35.6018567,41.0909091 35.9894056,40.7947149 36.1133469,40.3745435 L36.1404604,40.2570069 L40.2135854,16.0751887 C40.2228297,16.0203058 40.2274761,15.9647469 40.2274761,15.9090909 C40.2274761,15.3568062 39.7797609,14.9090909 39.2274761,14.9090909 Z M35.5,0 C35.7761424,-5.07265313e-17 36,0.223857625 36,0.5 L36,3.5 C36,3.77614237 35.7761424,4 35.5,4 L7.5,4 C7.22385763,4 7,3.77614237 7,3.5 L7,0.5 C7,0.223857625 7.22385763,5.07265313e-17 7.5,0 L35.5,0 Z" id="Combined-Shape" fill="#FFFFFF"></path>
    </g>
</svg>