<?xml version="1.0" encoding="UTF-8"?>
<svg width="35px" height="40px" viewBox="0 0 35 40" version="1.1" xmlns="http://www.w3.org/2000/svg" xmlns:xlink="http://www.w3.org/1999/xlink">
    <title>Combined Shape</title>
    <g id="Page-1" stroke="none" stroke-width="1" fill="none" fill-rule="evenodd">
        <path d="M4.75,22.5 C4.88807119,22.5 5,22.6119288 5,22.75 L5,39.75 C5,39.8880712 4.88807119,40 4.75,40 L0.25,40 C0.111928813,40 1.69088438e-17,39.8880712 0,39.75 L0,22.75 C-1.69088438e-17,22.6119288 0.111928813,22.5 0.25,22.5 L4.75,22.5 Z M19.75,22.5 C19.8880712,22.5 20,22.6119288 20,22.75 L20,39.75 C20,39.8880712 19.8880712,40 19.75,40 L15.25,40 C15.1119288,40 15,39.8880712 15,39.75 L15,22.75 C15,22.6119288 15.1119288,22.5 15.25,22.5 L19.75,22.5 Z M34.75,22.5 C34.8880712,22.5 35,22.6119288 35,22.75 L35,39.75 C35,39.8880712 34.8880712,40 34.75,40 L30.25,40 C30.1119288,40 30,39.8880712 30,39.75 L30,22.75 C30,22.6119288 30.1119288,22.5 30.25,22.5 L34.75,22.5 Z M4.75,0 C4.88807119,-2.53632657e-17 5,0.111928813 5,0.25 L5,17.25 C5,17.3880712 4.88807119,17.5 4.75,17.5 L0.25,17.5 C0.111928813,17.5 1.69088438e-17,17.3880712 0,17.25 L0,0.25 C-1.69088438e-17,0.111928813 0.111928813,2.53632657e-17 0.25,0 L4.75,0 Z M19.75,0 C19.8880712,-2.53632657e-17 20,0.111928813 20,0.25 L20,17.25 C20,17.3880712 19.8880712,17.5 19.75,17.5 L15.25,17.5 C15.1119288,17.5 15,17.3880712 15,17.25 L15,0.25 C15,0.111928813 15.1119288,2.53632657e-17 15.25,0 L19.75,0 Z M34.75,0 C34.8880712,-2.53632657e-17 35,0.111928813 35,0.25 L35,17.25 C35,17.3880712 34.8880712,17.5 34.75,17.5 L30.25,17.5 C30.1119288,17.5 30,17.3880712 30,17.25 L30,0.25 C30,0.111928813 30.1119288,2.53632657e-17 30.25,0 L34.75,0 Z" id="Combined-Shape" fill="#FFFFFF"></path>
    </g>
</svg>