<?xml version="1.0" encoding="UTF-8"?>
<svg width="24px" height="21px" viewBox="0 0 24 21" version="1.1" xmlns="http://www.w3.org/2000/svg" xmlns:xlink="http://www.w3.org/1999/xlink">
    <title>Fill 1</title>
    <g id="Page-1" stroke="none" stroke-width="1" fill="none" fill-rule="evenodd">
        <g id="Home" transform="translate(-25.000000, -734.000000)" fill="#FFFFFF">
            <g id="Navigation-Bar" transform="translate(0.000000, 728.000000)">
                <g id="Home" transform="translate(11.000000, 6.000000)">
                    <g id="Home-Icon" transform="translate(14.000000, 0.000000)">
                        <path d="M23.2710972,8.99218399 C23.2454116,8.96218891 23.2181694,8.93296624 23.1896298,8.90451597 L13.0910445,0.428009201 C12.5161025,-0.142669734 11.5838975,-0.142669734 11.0089555,0.428009201 L0.910370177,8.90451597 C0.88183064,8.93296624 0.854588355,8.96218891 0.828902772,8.99218399 C0.162634314,9.76935267 0.771045348,10.9707007 1.79924702,10.9707007 L3.08391535,10.9707007 C3.09247721,10.9707007 3.0996121,10.9773949 3.10000127,10.9858913 L3.55793111,19.9424481 C3.5882868,20.5350119 4.08124244,21 4.67914573,21 L10.5700953,21 C10.7223926,21 10.845891,20.877445 10.845891,20.726311 L10.845891,13.4946644 C10.845891,13.3435304 10.9693894,13.2209754 11.1216867,13.2209754 L12.9783133,13.2209754 C13.1306106,13.2209754 13.254109,13.3435304 13.254109,13.4946644 L13.254109,20.7266972 C13.254109,20.8777025 13.3773479,21 13.5295155,21 L19.4252649,21 C20.0205737,21 20.5117132,20.5369429 20.5418094,19.9466964 L20.9999987,10.9858913 C21.0003879,10.9773949 21.0075228,10.9707007 21.0160846,10.9707007 L22.300753,10.9707007 C23.3289547,10.9707007 23.9373657,9.7694814 23.2710972,8.99218399" id="Fill-1"></path>
                    </g>
                </g>
            </g>
        </g>
    </g>
</svg>