<?xml version="1.0" encoding="UTF-8"?>
<svg width="20px" height="21px" viewBox="0 0 20 21" version="1.1" xmlns="http://www.w3.org/2000/svg" xmlns:xlink="http://www.w3.org/1999/xlink">
    <title>Inbox Icon</title>
    <g id="Page-1" stroke="none" stroke-width="1" fill="none" fill-rule="evenodd">
        <g id="Home" transform="translate(-253.000000, -735.000000)" fill="#FFFFFF">
            <g id="Navigation-Bar" transform="translate(0.000000, 728.000000)">
                <g id="Inbox" transform="translate(236.000000, 7.128013)">
                    <g id="Inbox-Icon" transform="translate(17.000013, 0.000000)">
                        <path d="M17.9571203,0 C18.9468163,0 19.7491203,0.802304012 19.7491203,1.79200003 L19.7491203,1.79200003 L19.7491203,15.1111682 C19.7491203,16.1008642 18.9468163,16.9031683 17.9571203,16.9031683 L17.9571203,16.9031683 L13.0732802,16.9031683 L11.3822722,19.5356163 C11.0545922,20.0456963 10.4912642,20.3555843 9.88492815,20.3591683 L9.88492815,20.3591683 L9.87456015,20.3591683 C9.27219214,20.3591683 8.70976013,20.0564483 8.37811212,19.5530243 L8.37811212,19.5530243 L6.6324481,16.9031683 L1.79200003,16.9031683 C0.802304012,16.9031683 0,16.1008642 0,15.1111682 L0,15.1111682 L0,1.79200003 C0,0.802304012 0.802304012,0 1.79200003,0 L1.79200003,0 Z M17.9571203,1.79200003 L1.79200003,1.79200003 L1.79200003,15.1111682 L7.59782411,15.1111682 L9.87456015,18.5671683 L12.0944642,15.1111682 L17.9571203,15.1111682 L17.9571203,1.79200003 Z M13.6356226,7.83166732 C13.8360706,7.83166732 13.9985026,7.99409932 13.9985026,8.19454732 L13.9985026,9.81681935 C13.9985026,10.0171393 13.8360706,10.1795714 13.6356226,10.1795714 L6.11344649,10.1795714 C5.91312649,10.1795714 5.75069449,10.0171393 5.75069449,9.81681935 L5.75069449,8.19454732 C5.75069449,7.99409932 5.91312649,7.83166732 6.11344649,7.83166732 L13.6356226,7.83166732 Z" id="Combined-Shape"></path>
                    </g>
                </g>
            </g>
        </g>
    </g>
</svg>