<?xml version="1.0" encoding="UTF-8"?>
<svg width="40px" height="40px" viewBox="0 0 40 40" version="1.1" xmlns="http://www.w3.org/2000/svg" xmlns:xlink="http://www.w3.org/1999/xlink">
    <title>Combined Shape</title>
    <g id="Page-1" stroke="none" stroke-width="1" fill="none" fill-rule="evenodd">
        <path d="M28.9612095,0 C35.0482072,0 40,4.95202943 40,11.0385539 L40,11.0385539 L40,28.9614461 C40,35.0479706 35.0482072,40 28.9612095,40 L28.9612095,40 L11.0383173,40 C4.95179283,40 0,35.0482072 0,28.9614461 L0,28.9614461 L0,11.0385539 C0,4.95202943 4.95179283,0 11.0383173,0 L11.0383173,0 Z M28.9612095,3.54899386 L11.0383173,3.54899386 C6.90870805,3.54899386 3.54899386,6.90894465 3.54899386,11.0385539 L3.54899386,11.0385539 L3.54899386,28.9614461 C3.54899386,33.091292 6.90870805,36.4510061 11.0383173,36.4510061 L11.0383173,36.4510061 L28.9614461,36.4510061 C33.091292,36.4510061 36.4512427,33.091292 36.4512427,28.9614461 L36.4512427,28.9614461 L36.4512427,11.0385539 C36.4512427,6.90894465 33.0910554,3.54899386 28.9612095,3.54899386 L28.9612095,3.54899386 Z M20,9.69348523 C25.6833588,9.69348523 30.306988,14.3171144 30.306988,20.0004732 C30.306988,25.6835954 25.6833588,30.306988 20,30.306988 C14.3166412,30.306988 9.69301203,25.6835954 9.69301203,20.0004732 C9.69301203,14.3171144 14.3166412,9.69348523 20,9.69348523 Z M20,13.2422425 C16.2735564,13.2422425 13.2420059,16.273793 13.2420059,20.0002366 C13.2420059,23.7264436 16.273793,26.7577575 20,26.7577575 C23.726207,26.7577575 26.7579941,23.7264436 26.7579941,20.0002366 C26.7579941,16.273793 23.7264436,13.2422425 20,13.2422425 Z M30.7392554,6.68417504 C31.4253942,6.68417504 32.0973371,6.96099656 32.5800002,7.44602572 C33.0650294,7.92868888 33.3418509,8.60063172 33.3418509,9.28677053 C33.3418509,9.97054335 33.0650294,10.6424862 32.5800002,11.1275153 C32.0949711,11.6101785 31.4253942,11.889366 30.7392554,11.889366 C30.0554826,11.889366 29.3835398,11.6101785 28.9008766,11.1275153 C28.4158474,10.6424862 28.1366599,9.97077995 28.1366599,9.28677053 C28.1366599,8.60063172 28.4156108,7.92868888 28.9008766,7.44602572 C29.3837764,6.96099656 30.0554826,6.68417504 30.7392554,6.68417504 Z" id="Combined-Shape" fill="#FFFFFF" fill-rule="nonzero"></path>
    </g>
</svg>