<?xml version="1.0" encoding="UTF-8"?>
<svg width="35px" height="30px" viewBox="0 0 35 30" version="1.1" xmlns="http://www.w3.org/2000/svg" xmlns:xlink="http://www.w3.org/1999/xlink">
    <title>Combined Shape</title>
    <g id="Page-1" stroke="none" stroke-width="1" fill="none" fill-rule="evenodd">
        <path d="M22.7289037,0 C25.2332497,0 27.5817418,0.96916409 29.3415921,2.72901441 C31.4986185,4.88604081 32.3788579,7.84338957 31.9836718,10.6541016 L31.9836718,10.6541016 L29.9455259,8.61606043 C29.7852729,7.00651277 29.090529,5.44053716 27.8602468,4.21025494 C26.4961062,2.84611432 24.6737258,2.09481053 22.7289037,2.09481053 C20.7840816,2.09481053 18.9615964,2.84611432 17.5975606,4.21025494 L17.5975606,4.21025494 L17.5718991,4.23507844 L15.9824616,5.71967066 L15.9006593,5.63210758 L14.4787019,4.21025494 C13.1145613,2.84611432 11.2922856,2.09481053 9.34735879,2.09481053 C7.40243196,2.09481053 5.58015628,2.84611432 4.21601566,4.21025494 C2.85177031,5.57439555 2.10046651,7.39677597 2.10046651,9.3417028 C2.10046651,11.2865249 2.85177031,13.1089053 4.21601566,14.4730459 L4.21601566,14.4730459 L14.029784,24.2868143 C14.582814,24.8398443 15.168942,25.4156029 15.735693,25.972613 C15.8358249,26.0708597 15.9370043,26.1703632 16.0380789,26.2697619 C16.1391535,26.1703632 16.2404376,26.0708597 16.3405695,25.972613 C16.9073205,25.4156029 17.4935532,24.8398443 18.0464785,24.2868143 L18.0464785,24.2868143 L18.2072552,24.1260376 L19.6886004,25.6072781 L19.5278237,25.7681595 C18.9681951,26.3275787 18.3787154,26.9067938 17.8086127,27.4668414 C17.2313877,28.0339066 16.6344714,28.6203488 16.0609123,29.1940127 L16.0609123,29.1940127 L16.0380789,29.171284 L16.0153502,29.1940127 C15.4418958,28.6203488 14.8449795,28.0339066 14.2677545,27.4668414 C13.6975471,26.9067938 13.1080674,26.3275787 12.5484388,25.7681595 L12.5484388,25.7681595 L2.7346704,15.9543912 C-0.9115568,12.3080592 -0.9115568,6.37524161 2.7346704,2.72901441 C4.49452072,0.96916409 6.84290806,0 9.34735879,0 C11.8518095,0 14.2001969,0.96916409 15.9600472,2.72901441 L15.9600472,2.72901441 L16.0350414,2.80400863 L16.1293079,2.71592185 C17.8875871,0.964555507 20.2307374,0 22.7289037,0 Z M18.200447,10.2898455 C18.6095635,9.88083371 19.2725711,9.88083371 19.6816876,10.2898455 L19.6816876,10.2898455 L19.8877122,10.4958701 C19.9032138,10.5169229 19.9187154,10.5380805 19.9377781,10.5571433 L19.9377781,10.5571433 L21.6380311,12.2573963 L23.3146127,13.9338731 L30.2499019,20.8692671 L31.7868644,22.4061248 L32.999236,23.6184964 C33.3238269,24.029603 33.2970133,24.6275666 32.9175384,25.0070416 C32.7129801,25.2114951 32.4450539,25.3137218 32.1769181,25.3137218 C31.9088871,25.3137218 31.6408561,25.2114951 31.4362979,25.0070416 L31.4362979,25.0070416 L29.8133434,23.3840871 C28.4865952,23.9091514 27.0995164,24.220126 25.9716704,24.220126 L25.9716704,24.220126 L24.936834,24.220126 C23.2724023,24.220126 21.1608333,23.5707347 19.4262254,22.5254243 C17.2929751,21.2399438 16.1181006,19.6026399 16.1181006,17.9151653 C16.1181006,16.2276906 17.2929751,14.5903867 19.4262254,13.3048015 C19.4903266,13.2661523 19.5558942,13.2291789 19.6209381,13.1916817 L19.6209381,13.1916817 L18.200447,11.7711907 C17.7913305,11.362179 17.7913305,10.698962 18.200447,10.2898455 Z M21.167013,14.7377567 C20.9403545,14.8514001 20.718933,14.9715375 20.5073571,15.0990067 C19.0706313,15.9647919 18.2129112,17.017539 18.2129112,17.9150605 C18.2129112,18.8126868 19.0706313,19.8654339 20.5073571,20.7311143 C21.891189,21.5650584 23.6711495,22.1253155 24.936834,22.1253155 L24.936834,22.1253155 L25.9716704,22.1253155 C26.6110066,22.1253155 27.3800115,21.9846489 28.1698598,21.7406035 L28.1698598,21.7406035 Z M25.9716809,11.610037 C27.6180972,11.610037 29.8172293,12.2723113 31.5742516,13.2970926 C33.7834388,14.5857153 35,16.2257425 35,17.9149977 C35,19.3008196 34.1809291,20.6532293 32.6675332,21.8056893 L32.6675332,21.8056893 L31.168801,20.3069571 C32.1879264,19.5972353 32.9051895,18.7534456 32.9051895,17.9151024 C32.9051895,15.8269953 28.4569641,13.7048475 25.9716809,13.7048475 L25.9716809,13.7048475 L24.9368445,13.7048475 C24.822782,13.7048475 24.7033778,13.7109224 24.5815646,13.7198254 L24.5815646,13.7198254 L22.7706009,11.9087569 C23.5291318,11.7161391 24.2691236,11.610037 24.9368445,11.610037 L24.9368445,11.610037 Z" id="Combined-Shape" fill="#FFFFFF"></path>
    </g>
</svg>