<?xml version="1.0" encoding="UTF-8"?>
<svg width="35px" height="35px" viewBox="0 0 35 35" version="1.1" xmlns="http://www.w3.org/2000/svg" xmlns:xlink="http://www.w3.org/1999/xlink">
    <title>Combined Shape</title>
    <g id="Page-1" stroke="none" stroke-width="1" fill="none" fill-rule="evenodd">
        <path d="M22.5752714,14.3986413 C24.2727532,16.3790367 26.4783248,21.4657085 22.6618776,26.5494933 C19.0446247,31.3763464 15.4389193,33.9687591 11.6397933,34.4768489 C11.1981016,34.5345864 10.7506361,34.5634551 10.3089444,34.5634551 C7.84644103,34.5634551 5.42435387,33.6483161 3.08598605,31.8266987 C1.16044119,30.3255243 0.0634291295,28.021799 0.00280477869,25.34278 C-0.0693670675,22.2826938 1.25570803,19.2052862 3.4670534,17.3086101 C4.37353179,16.5349279 5.74190999,16.6359685 6.52136593,17.5424469 C7.297935,18.4518122 7.19400754,19.8201904 6.28464227,20.5967594 C5.05772089,21.6504684 4.28981244,23.4720858 4.33311555,25.2417395 C4.3504368,26.0269691 4.55829171,27.4848404 5.74768374,28.4086401 C7.58084863,29.8347557 9.31874669,30.4150174 11.0681922,30.1811806 C13.6173019,29.8405295 16.3540583,27.7446591 19.197629,23.94842 C21.807363,20.469737 19.541167,17.5251257 19.2726877,17.1989089 C18.5192136,16.2837699 18.6375755,14.9211654 19.5440539,14.1590307 C20.456306,13.3911223 21.8015892,13.4979366 22.5752714,14.3986413 Z M31.9140196,2.74259942 C33.8395645,4.24377382 34.9336897,6.54749915 34.9972009,9.22363121 C35.0693727,12.2866044 33.7414108,15.3640119 31.5329523,17.2549143 C30.6264739,18.0343702 29.2638694,17.9333296 28.4786397,17.0210775 C27.7020707,16.1145991 27.8059981,14.7462209 28.7124765,13.9696518 C29.9422848,12.9159429 30.7101932,11.0943255 30.669777,9.3246718 C30.6495689,8.54232898 30.441714,7.08734456 29.2523219,6.16065806 C27.4162702,4.7316555 25.6783721,4.14562011 23.9318134,4.38234377 C21.3827038,4.72588175 18.6459474,6.8188653 15.7994898,10.6179913 C13.1897558,14.0995611 15.4559518,17.0441725 15.7244311,17.3703892 C16.480792,18.2855282 16.3624302,19.6481327 15.4530649,20.4102674 C15.0460157,20.7538054 14.5494734,20.921244 14.055818,20.921244 C13.4495745,20.921244 12.8491047,20.6671991 12.4247343,20.1706568 C10.7272524,18.1902614 8.52168082,13.1035897 12.3352412,8.01691794 C15.955381,3.19006487 19.5610864,0.59765215 23.3602124,0.089562353 C26.2903894,-0.303052491 29.1570551,0.59765215 31.9140196,2.74259942 Z" id="Combined-Shape" fill="#FFFFFF"></path>
    </g>
</svg>