<?xml version="1.0" encoding="UTF-8"?>
<svg width="19px" height="21px" viewBox="0 0 19 21" version="1.1" xmlns="http://www.w3.org/2000/svg" xmlns:xlink="http://www.w3.org/1999/xlink">
    <title>Me Icon</title>
    <g id="Page-1" stroke="none" stroke-width="1" fill="none" fill-rule="evenodd">
        <g id="Home" transform="translate(-328.000000, -735.000000)" fill="#FFFFFF">
            <g id="Navigation-Bar" transform="translate(0.000000, 728.000000)">
                <g id="Me" transform="translate(311.000000, 7.000077)">
                    <g id="Me-Icon" transform="translate(17.000043, 0.000000)">
                        <path d="M9.03660325,12.7028098 C11.3686353,12.7028098 13.4285393,13.3378178 14.9939793,14.5392258 C16.6122834,15.7812098 17.6723794,17.6046979 18.0595794,19.8123139 C18.1450834,20.2997379 17.8193234,20.7641219 17.3318994,20.8496259 C17.2795474,20.8588419 17.2274514,20.8631939 17.1759954,20.8631939 C16.7489874,20.8631939 16.3708754,20.5568899 16.2945874,20.1218179 C15.6673873,16.5457538 13.0220113,14.4948098 9.03660325,14.4948098 C5.05119519,14.4948098 2.40581915,16.5457538 1.77861914,20.1218179 C1.70233114,20.5568899 1.32409113,20.8631939 0.897083124,20.8631939 C0.845755123,20.8631939 0.793659122,20.8588419 0.741307122,20.8496259 C0.253883114,20.7641219 -0.0718768904,20.2997379 0.0136271109,19.8123139 C0.400827117,17.6046979 1.46079513,15.7812098 3.07909916,14.5392258 C4.64453918,13.3378178 6.70469921,12.7028098 9.03660325,12.7028098 Z M9.03657765,0 C12.1299537,0 14.6465617,2.51660804 14.6465617,5.60998408 C14.6465617,8.70323213 12.1299537,11.2198402 9.03657765,11.2198402 C5.9432016,11.2198402 3.42659356,8.70323213 3.42659356,5.60998408 C3.42659356,2.51660804 5.9432016,0 9.03657765,0 Z M9.03657765,1.79200003 C6.92803361,1.79200003 5.21859359,3.50131205 5.21859359,5.60998408 C5.21859359,7.71852812 6.92803361,9.42784014 9.03657765,9.42784014 C11.1451217,9.42784014 12.8545617,7.71852812 12.8545617,5.60998408 C12.8545617,3.50131205 11.1451217,1.79200003 9.03657765,1.79200003 Z" id="Combined-Shape"></path>
                    </g>
                </g>
            </g>
        </g>
    </g>
</svg>