<?xml version="1.0" encoding="UTF-8"?>
<svg width="37px" height="27px" viewBox="0 0 37 27" version="1.1" xmlns="http://www.w3.org/2000/svg" xmlns:xlink="http://www.w3.org/1999/xlink">
    <title>Combined Shape</title>
    <g id="Page-1" stroke="none" stroke-width="1" fill="none" fill-rule="evenodd">
        <path d="M28.5,0 C32.918278,-8.11624501e-16 36.5,3.581722 36.5,8 L36.5,19 C36.5,23.418278 32.918278,27 28.5,27 L8.5,27 C4.081722,27 0.5,23.418278 0.5,19 L0.5,8 C0.5,3.581722 4.081722,8.11624501e-16 8.5,0 L28.5,0 Z M19.25,7 L17.75,7 C17.4738576,7 17.25,7.22385763 17.25,7.5 L17.25,7.5 L17.25,12.249 L12.5,12.25 C12.2238576,12.25 12,12.4738576 12,12.75 L12,12.75 L12,14.25 C12,14.5261424 12.2238576,14.75 12.5,14.75 L12.5,14.75 L17.25,14.749 L17.25,19.5 C17.25,19.7761424 17.4738576,20 17.75,20 L17.75,20 L19.25,20 C19.5261424,20 19.75,19.7761424 19.75,19.5 L19.75,19.5 L19.75,14.75 L24.5,14.75 C24.7761424,14.75 25,14.5261424 25,14.25 L25,14.25 L25,12.75 C25,12.4738576 24.7761424,12.25 24.5,12.25 L24.5,12.25 L19.75,12.25 L19.75,7.5 C19.75,7.22385763 19.5261424,7 19.25,7 L19.25,7 Z" id="Combined-Shape" fill="#FFFFFF"></path>
    </g>
</svg>