<?xml version="1.0" encoding="UTF-8"?>
<svg width="36px" height="38px" viewBox="0 0 36 38" version="1.1" xmlns="http://www.w3.org/2000/svg" xmlns:xlink="http://www.w3.org/1999/xlink">
    <title>Combined Shape</title>
    <g id="Page-1" stroke="none" stroke-width="1" fill="none" fill-rule="evenodd">
        <path d="M23.0196081,33 C24.9220595,33 23.0196081,38 17.918561,38 C12.817514,38 10.1436715,33 12.817514,33 L12.817514,33 Z M18,0 C25.9953518,0 32.2018413,4.78314159 32.2018413,10.6623451 C31.8792338,17.2032394 31.8792338,21.3202969 32.2018413,23.0135177 C32.5244488,24.7067385 33.7311433,26.4014509 35.8219248,28.0976549 C36.0907072,28.5090265 36.0532635,28.9930088 35.7228569,29.379292 C35.3924504,29.7655752 34.8153667,30 34.1947942,30 L34.1947942,30 L1.80520579,30 C1.18463331,30 0.607549633,29.7655752 0.277143061,29.379292 C-0.0532635113,28.9930088 -0.0907071834,28.5090265 0.178075224,28.0976549 C2.404472,26.2394875 3.66354478,24.5447752 3.95529358,23.0135177 C4.24704238,21.4822602 4.24704238,17.3652027 3.95529358,10.6623451 C3.95529358,4.78314159 10.0046482,0 18,0 Z M17.5,3 C11.4164895,3 7.84139112,6.63723118 7.84139112,11.1079301 L7.84139112,11.1079301 L7.84139112,23.9202285 C7.84139112,25.1211941 7.54547519,25.8294034 6.95364331,26.0448563 L6.95364331,26.0448563 L29.0677678,26.0448563 C28.4163632,25.7881413 28.0906609,25.0799096 28.0906609,23.9201613 L28.0906609,23.9201613 L28.0906609,11.1079301 C28.0906609,6.63723118 23.5835105,3 17.5,3 Z" id="Combined-Shape" fill="#FFFFFF" fill-rule="nonzero"></path>
    </g>
</svg>