<?xml version="1.0" encoding="UTF-8"?>
<svg width="36px" height="27px" viewBox="0 0 36 27" version="1.1" xmlns="http://www.w3.org/2000/svg" xmlns:xlink="http://www.w3.org/1999/xlink">
    <title>share</title>
    <g id="Page-1" stroke="none" stroke-width="1" fill="none" fill-rule="evenodd">
        <path d="M21.9790623,0.438294392 C21.9099865,0.370842133 21.8364759,0.310200587 21.7596056,0.256238779 C20.8066555,-0.411866029 19.4741919,0.310462537 19.4741919,1.45466242 L19.4741919,6.33362188 C17.7145066,6.30127099 15.9334536,6.43473478 14.2143538,6.71227136 C5.35706543,8.14278316 1.19074793,16.7240203 0.112950811,24.5538524 C0.0368868247,25.1059132 -0.0789562074,25.7771614 0.0781441459,26.3252928 C0.155686407,26.5964116 0.356059912,26.8520753 0.636663451,26.9180869 C0.774949391,26.9505687 0.90826295,26.9353756 1.0333788,26.8874387 C1.32527099,26.7755858 1.57214297,26.4844278 1.72978088,26.1999495 C3.36502219,23.2497317 6.60808954,21.7249178 9.87763145,21.1613312 C10.7698378,21.0075663 19.4741919,20.7378882 19.4741919,20.9161455 L19.4741919,25.5454661 C19.4741919,26.689535 20.8066555,27.4118636 21.7596056,26.7437588 C21.8364759,26.689666 21.9099865,26.6291554 21.9790623,26.5617032 L35.4812261,14.7207537 C36.1729246,14.0464931 36.1729246,12.9533735 35.4812261,12.2793748 L21.9790623,0.438294392 Z" id="share" fill="#FFFFFF"></path>
    </g>
</svg>